<?xml version="1.0" standalone="no"?>
<!DOCTYPE svg PUBLIC "-//W3C//DTD SVG 20010904//EN"
 "http://www.w3.org/TR/2001/REC-SVG-20010904/DTD/svg10.dtd">
<svg version="1.0" xmlns="http://www.w3.org/2000/svg"
 width="400.000000pt" height="400.000000pt" viewBox="0 0 400.000000 400.000000"
 preserveAspectRatio="xMidYMid meet">
<metadata>
Created by potrace 1.14, written by Peter Selinger 2001-2017
</metadata>
<g transform="translate(0.000000,400.000000) scale(0.100000,-0.100000)"
fill="#000000" stroke="none">
<path d="M1 3855 c0 -103 4 -145 12 -145 8 0 8 -3 -1 -8 -15 -10 -14 -104 2
-114 8 -5 7 -8 -1 -8 -8 0 -13 -14 -13 -34 0 -19 6 -37 13 -39 10 -4 10 -6 0
-6 -19 -1 -15 -29 5 -34 16 -4 16 -5 0 -6 -27 -2 -25 -67 2 -76 11 -3 20 -11
20 -18 0 -8 -3 -8 -12 1 -16 16 -28 15 -28 -2 0 -8 8 -17 18 -19 16 -4 16 -5
0 -6 -27 -2 -25 -67 2 -74 27 -7 27 -47 0 -47 -16 0 -20 -7 -20 -35 0 -28 4
-35 20 -35 15 0 20 -7 20 -25 0 -18 -5 -25 -20 -25 -29 0 -29 -65 0 -73 26 -7
26 -37 0 -44 -29 -8 -29 -73 0 -73 15 0 20 -7 20 -25 0 -18 -5 -25 -20 -25
-16 0 -20 -7 -20 -35 0 -28 4 -35 20 -35 15 0 20 -7 20 -25 0 -18 -5 -25 -20
-25 -16 0 -20 -7 -20 -35 0 -28 4 -35 20 -35 15 0 20 -7 20 -25 0 -18 -5 -25
-20 -25 -16 0 -20 -7 -20 -35 0 -28 4 -35 20 -35 15 0 20 -7 20 -25 0 -18 -5
-25 -20 -25 -16 0 -20 -7 -20 -35 0 -38 6 -42 35 -21 10 7 27 11 37 8 12 -3
18 1 18 13 0 12 -5 15 -20 10 -11 -4 -20 -2 -20 4 0 6 11 11 25 11 18 0 25 -5
25 -19 0 -10 6 -24 14 -30 8 -7 12 -21 8 -33 -4 -18 -2 -20 16 -16 40 11 59
-42 33 -91 -11 -19 -11 -26 1 -38 28 -27 71 14 46 44 -15 18 -17 63 -3 63 7 0
11 -10 11 -21 -1 -29 27 -47 48 -30 19 16 21 47 3 54 -7 3 -12 16 -12 31 2 34
15 47 15 14 0 -54 60 -62 68 -9 4 28 52 30 52 2 0 -10 7 -24 16 -32 21 -17 49
0 49 31 0 17 6 24 23 25 24 2 42 20 42 43 0 6 11 12 25 12 18 0 25 -5 25 -19
0 -24 25 -45 45 -37 11 4 15 -1 15 -18 0 -57 59 -57 71 0 7 33 10 31 13 -9 1
-15 -4 -33 -11 -39 -17 -14 -16 -33 2 -48 8 -7 12 -17 9 -22 -11 -17 -42 22
-36 44 4 18 2 20 -16 16 -12 -4 -26 0 -33 8 -26 32 -69 1 -49 -35 13 -25 33
-27 50 -6 7 8 17 12 22 9 17 -11 -22 -42 -44 -36 -17 4 -20 1 -16 -15 7 -25
-18 -61 -32 -47 -8 8 -6 15 5 24 21 17 19 37 -6 51 -17 9 -25 8 -37 -4 -14
-14 -13 -18 1 -40 20 -31 12 -40 -19 -20 -19 12 -27 13 -39 3 -18 -15 -19 -25
-2 -42 16 -17 16 -69 0 -86 -10 -11 -10 -18 2 -36 18 -27 10 -39 -16 -25 -14
7 -18 16 -13 34 5 19 2 25 -11 25 -13 0 -16 -6 -11 -24 4 -15 0 -28 -9 -36
-14 -11 -14 -15 2 -32 12 -14 14 -21 5 -30 -18 -18 -43 9 -36 38 5 18 2 24
-11 24 -13 0 -16 -6 -11 -24 7 -29 -18 -56 -36 -38 -9 9 -7 16 5 30 16 18 16
20 -1 35 -17 15 -19 15 -35 0 -13 -13 -20 -14 -29 -5 -9 9 -8 16 5 30 27 29
-13 58 -41 30 -9 -9 -8 -16 5 -30 24 -26 2 -49 -25 -25 -17 15 -19 15 -35 0
-13 -13 -20 -14 -29 -5 -18 18 9 43 38 36 18 -5 24 -2 24 11 0 13 -6 16 -24
11 -26 -6 -52 15 -41 34 5 8 14 7 30 -4 21 -14 24 -13 39 3 15 16 15 19 -1 34
-16 13 -21 14 -37 2 -26 -20 -39 -8 -21 18 20 28 19 34 -4 47 -15 7 -24 6 -36
-6 -14 -15 -14 -19 -1 -39 19 -30 10 -38 -20 -18 -23 14 -26 14 -43 -1 -24
-22 -39 -3 -17 20 20 20 20 19 -6 44 -12 11 -16 20 -10 20 7 0 12 7 12 15 0 8
-7 15 -15 15 -13 0 -15 -134 -15 -1150 l0 -1150 338 0 337 0 13 27 c14 32 16
73 3 73 -11 0 -9 35 4 64 5 11 4 36 -2 57 -6 25 -7 39 0 42 5 1 13 24 17 50 6
40 5 47 -8 42 -11 -4 -13 0 -6 22 4 16 6 39 5 53 -3 24 -3 50 -2 120 1 17 1
36 1 43 0 33 14 94 26 111 10 15 10 24 -4 52 -15 32 -15 35 6 57 27 28 28 52
4 66 -9 6 -11 11 -4 11 6 0 12 7 12 15 0 8 -6 15 -12 16 -7 0 -3 4 10 9 13 6
22 18 22 30 0 11 11 30 25 42 31 27 31 41 3 62 -13 9 -17 14 -10 11 20 -10 35
5 21 21 -9 11 -8 14 4 14 8 0 17 13 21 30 4 20 14 34 31 40 15 6 25 17 25 29
0 10 11 26 25 35 30 20 33 46 5 53 -13 3 -20 14 -20 29 0 20 5 24 30 24 27 0
30 3 30 30 0 21 5 30 17 30 23 0 53 29 46 46 -3 8 0 14 6 14 6 0 11 -5 11 -11
0 -7 9 0 20 14 11 14 20 32 20 41 0 9 4 16 10 16 5 0 7 -7 4 -15 -4 -8 -1 -15
5 -15 6 0 11 6 11 14 0 7 7 19 15 26 8 7 15 21 15 31 0 12 7 19 18 19 25 0 42
19 42 47 0 28 -34 32 -61 7 -10 -9 -20 -11 -23 -6 -3 5 1 15 9 22 19 16 19 34
0 50 -8 7 -12 17 -9 22 3 5 13 3 23 -6 21 -19 35 -20 49 -3 14 16 56 15 76 -2
9 -7 23 -10 32 -7 11 4 18 -1 21 -14 7 -25 46 -28 41 -3 -2 11 -11 17 -21 15
-9 -2 -17 3 -17 11 0 13 40 15 71 2 24 -9 46 22 31 45 -7 11 -8 21 -2 25 5 3
11 1 15 -5 10 -16 45 -12 52 6 3 9 1 25 -5 35 -7 10 -8 20 -2 24 5 3 11 1 15
-5 9 -15 45 -12 51 5 8 21 -16 49 -30 35 -5 -5 -18 -10 -28 -10 -15 0 -16 3
-6 19 17 28 -5 53 -39 45 -23 -6 -24 -4 -21 22 3 26 0 29 -29 32 -29 3 -33 7
-33 33 0 24 -4 29 -24 29 -26 0 -48 21 -29 27 8 3 7 12 -2 31 -8 15 -16 35
-19 45 -3 9 -14 17 -25 17 -15 0 -20 8 -23 33 -3 27 -7 32 -29 32 -24 -1 -26
2 -16 22 8 18 6 27 -8 43 -16 17 -16 20 -2 26 9 3 21 3 27 -1 5 -3 10 -1 10 4
0 6 -8 11 -18 11 -26 0 -33 10 -22 31 13 23 4 46 -21 52 -22 6 -26 46 -7 78
11 17 11 23 0 26 -16 6 -16 75 0 91 10 10 10 17 0 32 -18 30 -15 61 11 88 l22
24 -23 19 c-27 21 -23 54 8 62 14 4 20 14 20 32 0 17 10 37 26 52 20 18 23 27
15 37 -17 20 -2 49 21 42 16 -4 19 -1 15 16 -7 26 9 58 28 58 8 0 15 9 15 19
0 24 67 96 99 106 12 3 26 18 31 31 6 15 18 24 30 24 13 0 24 10 30 25 7 19
17 25 40 25 23 0 30 5 30 19 0 23 28 35 45 21 15 -12 41 -4 48 14 10 25 95 59
131 52 23 -5 37 -2 46 9 6 8 27 17 46 21 19 3 34 9 34 13 0 4 15 6 33 4 17 -1
42 0 55 2 24 6 30 29 10 42 -7 4 -13 17 -13 28 0 11 6 24 13 28 16 10 16 54 0
64 -7 4 -13 17 -13 28 0 11 6 24 13 28 18 12 15 54 -5 66 -10 6 -12 11 -5 11
6 0 12 7 12 15 0 8 -6 15 -12 15 -7 0 -5 5 5 11 22 13 22 55 0 68 -10 6 -12
11 -5 11 6 0 12 7 12 15 0 8 -6 15 -12 15 -7 0 -5 5 5 11 10 6 17 22 17 39 0
27 -3 30 -34 30 -19 0 -38 -4 -41 -10 -3 -5 -11 -10 -16 -10 -6 0 -7 5 -4 10
9 15 -88 13 -103 -2 -9 -9 -12 -9 -12 0 0 15 -96 17 -105 2 -3 -5 -11 -10 -16
-10 -6 0 -7 5 -4 10 4 6 -13 10 -44 10 -30 0 -52 -5 -55 -12 -5 -10 -7 -10
-12 0 -5 10 -169 12 -790 12 l-785 0 2 -145z m1594 96 c-3 -6 -11 -11 -16 -11
-5 0 -4 6 3 14 14 16 24 13 13 -3z m43 -32 c-10 -5 -18 -14 -18 -19 0 -5 8
-11 18 -13 15 -4 15 -5 0 -6 -9 0 -20 4 -23 9 -11 17 3 40 22 40 17 -1 17 -1
1 -11z m-1397 -72 c-10 -9 -11 -8 -5 6 3 10 9 15 12 12 3 -3 0 -11 -7 -18z
m-109 -109 c-9 -9 -9 -15 1 -27 11 -14 10 -14 -6 -2 -13 10 -15 17 -6 27 6 8
14 14 17 14 3 0 1 -5 -6 -12z m23 -147 c-3 -6 -11 -11 -16 -11 -5 0 -4 6 3 14
14 16 24 13 13 -3z m38 -28 c-18 -7 -16 -33 1 -33 8 0 17 6 19 13 4 9 6 9 6
-1 1 -17 -28 -27 -41 -14 -13 13 -3 42 14 41 10 0 10 -2 1 -6z m-118 -42 c-6
-5 -25 10 -25 20 0 5 6 4 14 -3 8 -7 12 -15 11 -17z m42 -43 c-3 -8 -6 -5 -6
6 -1 11 2 17 5 13 3 -3 4 -12 1 -19z m40 -3 c-4 -8 -12 -15 -19 -14 -10 0 -10
2 0 6 6 2 12 12 12 21 0 8 3 13 6 9 4 -3 4 -13 1 -22z m43 -35 c-20 -13 -33
-13 -25 0 3 6 14 10 23 10 15 0 15 -2 2 -10z m-105 -149 c-8 -14 -32 -14 -41
0 -4 8 0 9 15 4 14 -4 21 -2 21 6 0 7 3 10 6 6 3 -3 3 -10 -1 -16z m22 -53
c-3 -8 -6 -5 -6 6 -1 11 2 17 5 13 3 -3 4 -12 1 -19z m-19 -51 c4 -20 -25 -34
-40 -19 -15 15 -1 44 19 40 10 -2 19 -11 21 -21z m60 -60 c4 -20 -25 -34 -40
-19 -15 15 -1 44 19 40 10 -2 19 -11 21 -21z m-63 -62 c0 -30 -39 -27 -43 3
-3 20 0 23 20 20 15 -2 23 -10 23 -23z m123 2 c4 -20 -25 -34 -40 -19 -15 15
-1 44 19 40 10 -2 19 -11 21 -21z m-60 -60 c4 -20 -25 -34 -40 -19 -15 15 -1
44 19 40 10 -2 19 -11 21 -21z m112 8 c13 -16 6 -35 -15 -35 -18 0 -28 17 -21
35 7 19 20 19 36 0z m-172 -73 c3 -16 -2 -22 -17 -22 -24 0 -35 15 -27 36 9
23 40 13 44 -14z m120 5 c4 -20 -25 -34 -40 -19 -15 15 -1 44 19 40 10 -2 19
-11 21 -21z m90 3 c-7 -10 -14 -17 -17 -15 -4 4 18 35 25 35 2 0 -1 -9 -8 -20z
m-153 -65 c0 -13 -8 -21 -22 -23 -17 -3 -23 2 -23 16 0 10 3 22 7 26 13 13 38
1 38 -19z m123 2 c4 -20 -25 -34 -40 -19 -15 15 -1 44 19 40 10 -2 19 -11 21
-21z m-178 -62 c0 -20 -5 -25 -25 -25 -20 0 -25 5 -25 25 0 20 5 25 25 25 20
0 25 -5 25 -25z m115 0 c0 -13 -8 -21 -22 -23 -17 -3 -23 2 -23 16 0 10 3 22
7 26 13 13 38 1 38 -19z m94 -8 c12 -15 12 -17 -3 -11 -9 3 -16 13 -16 22 0 8
1 13 3 11 1 -2 9 -12 16 -22z m-149 -52 c0 -20 -5 -25 -25 -25 -20 0 -25 5
-25 25 0 20 5 25 25 25 20 0 25 -5 25 -25z m118 -3 c3 -18 -1 -22 -22 -22 -19
0 -26 5 -26 18 0 39 43 43 48 4z m-178 -57 c0 -20 -5 -25 -25 -25 -20 0 -25 5
-25 25 0 20 5 25 25 25 20 0 25 -5 25 -25z m120 0 c0 -20 -5 -25 -25 -25 -20
0 -25 5 -25 25 0 20 5 25 25 25 20 0 25 -5 25 -25z m115 0 c0 -13 -8 -21 -22
-23 -17 -3 -23 2 -23 16 0 10 3 22 7 26 13 13 38 1 38 -19z m-175 -60 c0 -20
-5 -25 -25 -25 -20 0 -25 5 -25 25 0 20 5 25 25 25 20 0 25 -5 25 -25z m120 0
c0 -20 -5 -25 -25 -25 -20 0 -25 5 -25 25 0 20 5 25 25 25 20 0 25 -5 25 -25z
m114 9 c7 -19 -1 -34 -19 -34 -18 0 -28 17 -21 35 7 20 32 19 40 -1z m93 2
c-8 -20 4 -28 20 -14 11 8 12 7 7 -6 -7 -17 -29 -22 -38 -7 -6 10 3 41 11 41
3 0 3 -6 0 -14z m-387 -71 c0 -20 -5 -25 -25 -25 -20 0 -25 5 -25 25 0 20 5
25 25 25 20 0 25 -5 25 -25z m120 0 c0 -20 -5 -25 -25 -25 -20 0 -25 5 -25 25
0 20 5 25 25 25 20 0 25 -5 25 -25z m120 0 c0 -20 -5 -25 -25 -25 -20 0 -25 5
-25 25 0 20 5 25 25 25 20 0 25 -5 25 -25z m115 0 c0 -13 -8 -21 -22 -23 -17
-3 -23 2 -23 16 0 10 3 22 7 26 13 13 38 1 38 -19z m123 2 c4 -20 -25 -34 -40
-19 -15 15 -1 44 19 40 10 -2 19 -11 21 -21z m120 0 c4 -20 -25 -34 -39 -20
-14 14 1 45 20 41 9 -2 17 -11 19 -21z m215 16 c-7 -2 -13 -11 -13 -18 0 -7 6
-16 13 -18 9 -4 9 -6 0 -6 -6 -1 -15 4 -18 9 -9 15 2 40 17 39 10 0 10 -2 1
-6z m-98 -33 c-3 -5 -12 -10 -18 -10 -7 0 -6 4 3 10 19 12 23 12 15 0z m-655
-45 c0 -20 -5 -25 -25 -25 -20 0 -25 5 -25 25 0 20 5 25 25 25 20 0 25 -5 25
-25z m120 0 c0 -20 -5 -25 -25 -25 -20 0 -25 5 -25 25 0 20 5 25 25 25 20 0
25 -5 25 -25z m115 0 c0 -13 -8 -21 -22 -23 -19 -3 -23 1 -23 23 0 22 4 26 23
23 14 -2 22 -10 22 -23z m125 0 c0 -20 -5 -25 -25 -25 -18 0 -25 5 -25 18 0
24 8 32 32 32 13 0 18 -7 18 -25z m115 0 c0 -13 -8 -21 -22 -23 -17 -3 -23 2
-23 16 0 10 3 22 7 26 13 13 38 1 38 -19z m120 0 c0 -13 -8 -21 -22 -23 -17
-3 -23 2 -23 16 0 10 3 22 7 26 13 13 38 1 38 -19z m362 -10 c-4 -8 -12 -15
-19 -14 -10 0 -10 2 0 6 6 2 12 12 12 21 0 8 3 13 6 9 4 -3 4 -13 1 -22z
m-897 -32 c0 -5 -11 -8 -25 -8 -14 0 -25 3 -25 8 0 4 11 7 25 7 14 0 25 -3 25
-7z m120 -18 c0 -20 -5 -25 -25 -25 -20 0 -25 5 -25 25 0 20 5 25 25 25 20 0
25 -5 25 -25z m120 0 c0 -20 -5 -25 -25 -25 -20 0 -25 5 -25 25 0 20 5 25 25
25 20 0 25 -5 25 -25z m240 0 c0 -20 -5 -25 -25 -25 -18 0 -25 5 -25 18 0 24
8 32 32 32 13 0 18 -7 18 -25z m120 15 c0 -5 -7 -7 -15 -4 -8 4 -15 8 -15 10
0 2 7 4 15 4 8 0 15 -4 15 -10z m-600 -32 c0 -5 -11 -8 -24 -8 -13 0 -27 -7
-30 -16 -3 -8 -10 -13 -16 -9 -14 9 22 40 48 40 12 0 22 -3 22 -7z m565 2 c3
-5 1 -10 -4 -10 -6 0 -11 5 -11 10 0 6 2 10 4 10 3 0 8 -4 11 -10z m35 0 c0
-5 -5 -10 -11 -10 -5 0 -7 5 -4 10 3 6 8 10 11 10 2 0 4 -4 4 -10z m-60 -26
c0 -8 -5 -12 -10 -9 -6 4 -8 11 -5 16 9 14 15 11 15 -7z m-510 2 c0 -3 -4 -8
-10 -11 -5 -3 -10 -1 -10 4 0 6 5 11 10 11 6 0 10 -2 10 -4z m630 -6 c0 -5 -2
-10 -4 -10 -3 0 -8 5 -11 10 -3 6 -1 10 4 10 6 0 11 -4 11 -10z m-635 -30 c3
-5 1 -10 -4 -10 -6 0 -11 5 -11 10 0 6 2 10 4 10 3 0 8 -4 11 -10z m539 -31
c-2 -4 -13 -1 -24 8 -10 9 -17 21 -13 25 3 5 13 2 24 -8 10 -9 16 -20 13 -25z
m61 31 c3 -5 -1 -10 -10 -10 -9 0 -13 5 -10 10 3 6 8 10 10 10 2 0 7 -4 10
-10z m35 0 c0 -5 -5 -10 -11 -10 -5 0 -7 5 -4 10 3 6 8 10 11 10 2 0 4 -4 4
-10z m85 0 c3 -5 1 -10 -4 -10 -6 0 -11 5 -11 10 0 6 2 10 4 10 3 0 8 -4 11
-10z m-145 -30 c0 -5 -2 -10 -4 -10 -3 0 -8 5 -11 10 -3 6 -1 10 4 10 6 0 11
-4 11 -10z m90 6 c0 -3 -4 -8 -10 -11 -5 -3 -10 -1 -10 4 0 6 5 11 10 11 6 0
10 -2 10 -4z m-136 -57 c-9 -10 -21 -16 -26 -13 -5 3 -2 14 8 25 9 10 21 16
26 13 5 -3 2 -14 -8 -25z m70 -11 c-3 -5 -14 -2 -25 8 -10 9 -16 21 -13 26 3
5 14 2 25 -8 10 -9 16 -21 13 -26z m96 32 c0 -5 -5 -10 -11 -10 -5 0 -7 5 -4
10 3 6 8 10 11 10 2 0 4 -4 4 -10z m-60 -30 c0 -5 -2 -10 -4 -10 -3 0 -8 5
-11 10 -3 6 -1 10 4 10 6 0 11 -4 11 -10z m120 0 c0 -5 -2 -10 -4 -10 -3 0 -8
5 -11 10 -3 6 -1 10 4 10 6 0 11 -4 11 -10z m-336 -62 c-3 -5 -14 -2 -25 8
-10 9 -16 21 -13 26 3 5 14 2 25 -8 10 -9 16 -21 13 -26z m50 11 c-9 -10 -21
-16 -26 -13 -5 3 -2 14 8 25 9 10 21 16 26 13 5 -3 2 -14 -8 -25z m70 -11 c-3
-5 -14 -2 -25 8 -10 9 -16 21 -13 26 3 5 14 2 25 -8 10 -9 16 -21 13 -26z m50
11 c-9 -10 -21 -16 -26 -13 -5 3 -2 14 8 25 9 10 21 16 26 13 5 -3 2 -14 -8
-25z m69 -11 c-2 -4 -12 0 -22 10 -10 9 -16 20 -14 24 2 4 12 0 22 -10 10 -9
16 -20 14 -24z m51 11 c-9 -10 -21 -16 -26 -13 -11 7 24 43 35 37 5 -3 1 -13
-9 -24z m46 21 c0 -5 -5 -10 -11 -10 -5 0 -7 5 -4 10 3 6 8 10 11 10 2 0 4 -4
4 -10z m-463 -80 c-13 -22 -23 -25 -32 -9 -8 11 25 40 37 33 4 -3 2 -14 -5
-24z m64 -13 c-12 -12 -45 19 -36 34 5 7 14 4 26 -7 13 -11 16 -21 10 -27z
m53 12 c-12 -13 -21 -16 -28 -9 -7 7 -4 14 9 24 27 19 40 8 19 -15z m70 -11
c-3 -5 -14 -2 -25 8 -10 9 -16 21 -13 26 3 5 14 2 25 -8 10 -9 16 -21 13 -26z
m50 11 c-9 -10 -21 -16 -26 -13 -5 3 -2 14 8 25 9 10 21 16 26 13 5 -3 2 -14
-8 -25z m57 1 c5 0 9 -5 9 -12 0 -6 -8 -3 -20 7 -11 10 -16 23 -12 29 4 7 8 5
10 -6 2 -10 8 -18 13 -18z m63 -1 c-9 -11 -19 -17 -21 -15 -8 7 21 45 30 39 4
-3 1 -14 -9 -24z m46 21 c0 -5 -5 -10 -11 -10 -5 0 -7 5 -4 10 3 6 8 10 11 10
2 0 4 -4 4 -10z m75 -17 c-28 -20 -41 -16 -19 6 10 10 23 16 28 13 5 -3 1 -11
-9 -19z m45 8 c0 -5 8 -11 18 -13 11 -2 13 -6 6 -10 -6 -4 -19 1 -29 12 -10
12 -13 20 -7 20 7 0 12 -4 12 -9z m68 -11 c-7 -10 -14 -17 -17 -15 -4 4 18 35
25 35 2 0 -1 -9 -8 -20z m-1064 -72 c-3 -5 -13 -3 -22 4 -10 7 -19 13 -21 15
-1 1 0 7 4 13 5 8 13 6 26 -6 10 -9 16 -21 13 -26z m54 6 c-24 -24 -44 -7 -22
17 12 13 21 16 28 9 7 -7 5 -15 -6 -26z m422 21 c10 -12 10 -19 2 -27 -15 -15
-48 14 -38 31 10 15 21 14 36 -4z m64 7 c7 -12 -22 -45 -33 -37 -8 4 -8 12 -1
26 11 20 25 25 34 11z m60 -34 c-3 -5 -14 -2 -25 8 -10 9 -16 21 -13 26 3 5
14 2 25 -8 10 -9 16 -21 13 -26z m50 11 c-9 -10 -21 -16 -26 -13 -5 3 -2 14 8
25 9 10 21 16 26 13 5 -3 2 -14 -8 -25z m70 -11 c-3 -5 -14 -2 -25 8 -10 9
-16 21 -13 26 3 5 14 2 25 -8 10 -9 16 -21 13 -26z m216 32 c0 -5 -5 -10 -11
-10 -5 0 -7 5 -4 10 3 6 8 10 11 10 2 0 4 -4 4 -10z m76 -18 c-8 -9 -19 -13
-22 -9 -10 9 16 38 28 31 6 -4 4 -13 -6 -22z m-238 6 c-3 -7 -13 -15 -24 -17
-16 -3 -17 -1 -5 13 16 19 34 21 29 4z m60 -6 c6 -18 -15 -14 -22 4 -4 10 -1
14 6 12 6 -2 14 -10 16 -16z m56 -1 c-22 -21 -27 -21 -18 3 3 9 13 16 22 16
13 0 12 -3 -4 -19z m184 0 c3 -8 -1 -12 -9 -9 -7 2 -15 10 -17 17 -3 8 1 12 9
9 7 -2 15 -10 17 -17z m-113 0 c3 -5 1 -12 -5 -16 -5 -3 -10 1 -10 9 0 18 6
21 15 7z m-968 -65 c-8 -9 -23 -13 -31 -10 -13 5 -12 9 7 24 26 22 47 9 24
-14z m56 22 c29 -30 4 -119 -25 -90 -10 10 -8 16 5 29 15 15 15 18 1 34 -9 10
-13 23 -9 28 8 14 14 14 28 -1z m430 -13 c-6 -16 -43 -21 -43 -5 0 11 32 30
42 24 4 -3 5 -11 1 -19z m54 -11 c-9 -10 -38 16 -31 28 4 6 13 4 22 -6 9 -8
13 -19 9 -22z m64 2 c-7 -8 -19 -12 -27 -9 -13 5 -12 8 2 24 21 23 45 9 25
-15z m54 -4 c-19 -4 -37 16 -28 31 3 4 14 0 25 -10 18 -16 19 -18 3 -21z m59
7 c-9 -10 -21 -16 -26 -13 -5 3 -2 14 8 25 9 10 21 16 26 13 5 -3 2 -14 -8
-25z m64 -5 c-10 -10 -28 6 -28 24 0 15 1 15 17 -1 9 -9 14 -19 11 -23z m61
10 c-17 -21 -31 -17 -17 5 7 11 16 17 20 14 5 -2 4 -11 -3 -19z m57 -11 c-8
-9 -37 18 -30 28 3 5 12 2 21 -6 8 -9 13 -19 9 -22z m62 15 c-2 -6 -10 -14
-16 -16 -7 -2 -10 2 -6 12 7 18 28 22 22 4z m-963 -52 c8 -8 11 -23 8 -36 -5
-20 -3 -22 19 -17 31 8 58 -17 40 -35 -9 -9 -16 -7 -30 5 -18 16 -20 16 -35
-1 -13 -15 -14 -21 -4 -31 6 -6 12 -26 12 -44 1 -38 -21 -65 -37 -49 -8 8 -6
15 5 27 15 15 14 45 -2 45 -4 0 -7 16 -8 35 -1 19 3 35 7 35 18 0 18 32 0 47
-15 13 -16 19 -7 25 16 10 16 10 32 -6z m125 -1 c10 -12 10 -19 2 -27 -15 -15
-48 14 -38 31 10 15 21 14 36 -4z m66 4 c10 -17 -23 -46 -38 -31 -8 8 -8 15 2
27 15 18 26 19 36 4z m54 -4 c10 -12 10 -19 2 -27 -15 -15 -48 14 -38 31 10
15 21 14 36 -4z m184 6 c3 -4 -3 -16 -13 -25 -24 -21 -38 -4 -15 18 18 18 21
19 28 7z m176 -17 c0 -18 -26 -18 -33 0 -3 8 -3 16 0 19 9 10 33 -5 33 -19z
m118 6 c10 -16 10 -20 -2 -20 -17 0 -38 24 -29 33 10 11 17 8 31 -13z m56 -11
c-9 -10 -21 -16 -26 -13 -5 3 -2 14 8 25 9 10 21 16 26 13 5 -3 2 -14 -8 -25z
m62 -6 c-4 -4 -11 -1 -16 7 -16 25 -11 35 7 17 9 -9 13 -20 9 -24z m-358 8 c3
-8 -1 -12 -9 -9 -7 2 -15 10 -17 17 -3 8 1 12 9 9 7 -2 15 -10 17 -17z m72 9
c0 -12 -28 -25 -36 -17 -9 9 6 27 22 27 8 0 14 -5 14 -10z m110 -5 c0 -8 -7
-15 -15 -15 -8 0 -15 7 -15 15 0 8 7 15 15 15 8 0 15 -7 15 -15z m240 5 c0 -5
-7 -10 -16 -10 -8 0 -12 5 -9 10 3 6 10 10 16 10 5 0 9 -4 9 -10z m47 -5 c0
-8 -4 -12 -9 -9 -4 3 -8 9 -8 15 0 5 4 9 8 9 5 0 9 -7 9 -15z m187 -1 c3 -8 2
-12 -4 -9 -6 3 -10 10 -10 16 0 14 7 11 14 -7z m58 1 c0 -5 -5 -11 -11 -13 -6
-2 -11 4 -11 13 0 9 5 15 11 13 6 -2 11 -8 11 -13z m66 -3 c2 -7 -3 -12 -12
-12 -9 0 -16 7 -16 16 0 17 22 14 28 -4z m-1132 -43 c10 -17 -23 -46 -38 -31
-8 8 -8 15 2 27 15 18 26 19 36 4z m54 -4 c10 -12 9 -16 -5 -21 -19 -8 -40 9
-31 25 10 15 21 14 36 -4z m66 4 c10 -17 -23 -46 -38 -31 -8 8 -8 15 2 27 15
18 26 19 36 4z m64 -19 c0 -18 -22 -22 -37 -7 -21 21 -8 40 18 27 10 -6 19
-15 19 -20z m53 -1 c-6 -6 -19 -9 -29 -7 -17 3 -17 4 1 21 12 13 21 15 28 8 8
-8 8 -14 0 -22z m241 0 c-8 -14 -34 -11 -34 4 0 8 3 17 7 20 9 9 34 -13 27
-24z m112 3 c-8 -9 -19 -13 -22 -9 -10 9 16 38 28 31 6 -4 4 -13 -6 -22z m62
-8 c-10 -10 -28 6 -28 24 0 15 1 15 17 -1 9 -9 14 -19 11 -23z m-363 15 c10
-15 -1 -23 -20 -15 -9 3 -13 10 -10 16 8 13 22 13 30 -1z m65 -4 c0 -8 -7 -15
-15 -15 -8 0 -15 7 -15 15 0 8 7 15 15 15 8 0 15 -7 15 -15z m63 0 c1 -5 -6
-11 -15 -13 -11 -2 -18 3 -18 13 0 17 30 18 33 0z m117 0 c0 -8 -7 -15 -15
-15 -8 0 -15 7 -15 15 0 8 7 15 15 15 8 0 15 -7 15 -15z m180 6 c0 -5 -7 -11
-15 -15 -15 -5 -20 5 -8 17 9 10 23 9 23 -2z m50 5 c0 -3 -4 -8 -10 -11 -5 -3
-10 -1 -10 4 0 6 5 11 10 11 6 0 10 -2 10 -4z m68 -14 c2 -7 -2 -10 -12 -6 -9
3 -16 11 -16 16 0 13 23 5 28 -10z m182 9 c0 -12 -20 -25 -27 -18 -7 7 6 27
18 27 5 0 9 -4 9 -9z m58 -10 c3 -8 -1 -12 -9 -9 -7 2 -15 10 -17 17 -3 8 1
12 9 9 7 -2 15 -10 17 -17z m62 10 c0 -12 -20 -25 -27 -18 -7 7 6 27 18 27 5
0 9 -4 9 -9z m60 -7 c0 -9 -5 -14 -12 -12 -18 6 -21 28 -4 28 9 0 16 -7 16
-16z m-1254 -45 c10 -17 -23 -46 -38 -31 -8 8 -8 15 2 27 15 18 26 19 36 4z
m115 -22 c-5 -5 -17 -7 -26 -3 -14 5 -15 9 -5 21 10 12 16 13 27 4 9 -8 10
-16 4 -22z m59 7 c0 -8 -7 -14 -15 -14 -15 0 -21 21 -9 33 10 9 24 -2 24 -19z
m70 6 c0 -4 -6 -13 -14 -19 -17 -14 -31 2 -22 24 5 15 36 10 36 -5z m50 -6 c0
-14 -21 -19 -33 -7 -9 9 13 34 24 27 5 -3 9 -12 9 -20z m-240 0 c0 -9 -7 -14
-17 -12 -25 5 -28 28 -4 28 12 0 21 -6 21 -16z m300 1 c0 -8 -7 -15 -15 -15
-8 0 -15 7 -15 15 0 8 7 15 15 15 8 0 15 -7 15 -15z m63 8 c4 -3 2 -12 -4 -20
-9 -10 -15 -10 -25 -2 -8 6 -11 15 -8 20 6 11 28 12 37 2z m60 0 c9 -9 -13
-34 -24 -27 -14 8 -11 34 4 34 8 0 17 -3 20 -7z m57 -8 c0 -8 -7 -15 -15 -15
-8 0 -15 7 -15 15 0 8 7 15 15 15 8 0 15 -7 15 -15z m60 0 c0 -8 -7 -15 -15
-15 -8 0 -15 7 -15 15 0 8 7 15 15 15 8 0 15 -7 15 -15z m54 -1 c4 -10 1 -14
-6 -12 -15 5 -23 28 -10 28 5 0 13 -7 16 -16z m66 7 c0 -12 -20 -25 -27 -18
-7 7 6 27 18 27 5 0 9 -4 9 -9z m289 -13 c-9 -16 -14 -19 -17 -9 -2 7 2 17 9
22 20 13 21 11 8 -13z m72 6 c12 -14 11 -16 -5 -13 -11 2 -21 10 -24 17 -5 17
13 15 29 -4z m49 -4 c-6 -11 -15 -18 -21 -14 -6 4 -6 11 2 20 17 21 31 17 19
-6z m69 -5 c3 -17 2 -17 -13 -3 -19 20 -21 31 -3 26 6 -3 14 -13 16 -23z m59
13 c-3 -7 -13 -15 -24 -17 -16 -3 -17 -1 -5 13 16 19 34 21 29 4z m62 -3 c10
-12 10 -15 -3 -15 -8 0 -17 7 -21 15 -3 8 -2 15 3 15 5 0 14 -7 21 -15z
m-1322 -47 c17 -17 15 -28 -7 -28 -22 0 -35 15 -26 30 8 13 18 13 33 -2z
m1026 -30 c-3 -5 -14 -2 -25 8 -10 9 -16 21 -13 26 3 5 14 2 25 -8 10 -9 16
-21 13 -26z m50 11 c-9 -10 -21 -16 -26 -13 -5 3 -2 14 8 25 9 10 21 16 26 13
5 -3 2 -14 -8 -25z m114 2 c-8 -12 -18 -18 -21 -14 -4 3 0 15 10 25 21 24 29
15 11 -11z m75 -13 c-6 -11 -42 23 -36 34 2 4 12 0 23 -9 10 -9 17 -21 13 -25z
m51 11 c-9 -10 -21 -16 -26 -13 -11 7 24 43 35 37 5 -3 1 -13 -9 -24z m-1254
6 c0 -8 -7 -15 -15 -15 -8 0 -15 7 -15 15 0 8 7 15 15 15 8 0 15 -7 15 -15z
m58 -4 c3 -8 -1 -12 -9 -9 -7 2 -15 10 -17 17 -3 8 1 12 9 9 7 -2 15 -10 17
-17z m62 4 c0 -8 -7 -15 -15 -15 -16 0 -20 12 -8 23 11 12 23 8 23 -8z m58 -3
c2 -7 -3 -12 -12 -12 -9 0 -16 7 -16 16 0 17 22 14 28 -4z m62 3 c0 -8 -7 -15
-15 -15 -8 0 -15 7 -15 15 0 8 7 15 15 15 8 0 15 -7 15 -15z m60 0 c0 -8 -7
-15 -15 -15 -8 0 -15 7 -15 15 0 8 7 15 15 15 8 0 15 -7 15 -15z m60 0 c0 -8
-7 -15 -15 -15 -8 0 -15 7 -15 15 0 8 7 15 15 15 8 0 15 -7 15 -15z m60 0 c0
-8 -7 -15 -15 -15 -8 0 -15 7 -15 15 0 8 7 15 15 15 8 0 15 -7 15 -15z m60 0
c0 -8 -7 -15 -15 -15 -8 0 -15 7 -15 15 0 8 7 15 15 15 8 0 15 -7 15 -15z m58
-3 c2 -7 -3 -12 -12 -12 -9 0 -16 7 -16 16 0 17 22 14 28 -4z m56 3 c-6 -16
-24 -21 -24 -7 0 11 11 22 21 22 5 0 6 -7 3 -15z m56 5 c0 -5 -2 -10 -4 -10
-3 0 -8 5 -11 10 -3 6 -1 10 4 10 6 0 11 -4 11 -10z m65 -18 c-8 -8 -25 10
-19 20 4 6 9 5 15 -3 4 -7 6 -15 4 -17z m180 8 c-20 -22 -31 -20 -22 5 4 8 14
15 23 15 16 0 16 -2 -1 -20z m182 5 c9 -24 -1 -27 -20 -5 -14 17 -15 20 -2 20
9 0 18 -7 22 -15z m-1200 -51 c10 -9 12 -19 6 -25 -12 -12 -48 14 -39 29 9 16
14 15 33 -4z m1003 6 c0 -5 -5 -10 -11 -10 -5 0 -7 5 -4 10 3 6 8 10 11 10 2
0 4 -4 4 -10z m74 -21 c-9 -10 -21 -16 -26 -13 -5 3 -2 14 8 25 9 10 21 16 26
13 5 -3 2 -14 -8 -25z m66 -13 c-7 -7 -14 -4 -24 9 -19 27 -8 40 15 19 13 -12
16 -21 9 -28z m54 13 c-9 -10 -21 -16 -26 -13 -5 3 -2 14 8 25 9 10 21 16 26
13 5 -3 2 -14 -8 -25z m62 1 c8 0 12 -5 9 -11 -5 -7 -13 -4 -26 7 -10 9 -15
22 -11 28 4 7 8 5 10 -6 2 -10 10 -18 18 -18z m57 0 c-10 -9 -21 -16 -25 -13
-10 5 25 41 35 35 5 -2 0 -12 -10 -22z m-1250 5 c1 -5 -6 -11 -15 -13 -11 -2
-18 3 -18 13 0 17 30 18 33 0z m57 0 c0 -8 -7 -15 -15 -15 -8 0 -15 7 -15 15
0 8 7 15 15 15 8 0 15 -7 15 -15z m58 -3 c2 -7 -3 -12 -12 -12 -9 0 -16 7 -16
16 0 17 22 14 28 -4z m62 3 c0 -8 -7 -15 -15 -15 -8 0 -15 7 -15 15 0 8 7 15
15 15 8 0 15 -7 15 -15z m60 0 c0 -8 -7 -15 -15 -15 -8 0 -15 7 -15 15 0 8 7
15 15 15 8 0 15 -7 15 -15z m60 0 c0 -8 -7 -15 -15 -15 -8 0 -15 7 -15 15 0 8
7 15 15 15 8 0 15 -7 15 -15z m63 0 c1 -5 -6 -11 -15 -13 -11 -2 -18 3 -18 13
0 17 30 18 33 0z m55 -2 c-4 -22 -22 -20 -26 1 -2 10 3 16 13 16 10 0 15 -7
13 -17z m62 2 c0 -8 -7 -15 -15 -15 -8 0 -15 7 -15 15 0 8 7 15 15 15 8 0 15
-7 15 -15z m60 6 c0 -5 -7 -11 -15 -15 -15 -5 -20 5 -8 17 9 10 23 9 23 -2z
m53 -5 c4 -10 1 -13 -9 -9 -15 6 -19 23 -5 23 5 0 11 -7 14 -14z m187 5 c0
-12 -20 -25 -27 -18 -7 7 6 27 18 27 5 0 9 -4 9 -9z m58 -9 c2 -7 -2 -10 -12
-6 -9 3 -16 11 -16 16 0 13 23 5 28 -10z m-118 -2 c0 -5 -5 -10 -11 -10 -5 0
-7 5 -4 10 3 6 8 10 11 10 2 0 4 -4 4 -10z m244 -11 c-3 -5 -10 -7 -15 -3 -5
3 -7 10 -3 15 3 5 10 7 15 3 5 -3 7 -10 3 -15z m-84 1 c0 -5 -2 -10 -4 -10 -3
0 -8 5 -11 10 -3 6 -1 10 4 10 6 0 11 -4 11 -10z m-940 -40 c0 -14 -7 -20 -22
-20 -20 0 -21 1 -3 20 10 11 20 20 22 20 1 0 3 -9 3 -20z m238 -14 c-2 -10 -7
-13 -17 -7 -8 6 -11 16 -7 27 8 21 30 4 24 -20z m654 3 c-9 -11 -18 -15 -20
-9 -5 14 18 41 29 35 4 -3 1 -15 -9 -26z m48 21 c0 -5 -5 -10 -11 -10 -5 0 -7
5 -4 10 3 6 8 10 11 10 2 0 4 -4 4 -10z m73 -20 c-24 -23 -39 -14 -17 11 9 10
21 16 26 13 5 -3 1 -14 -9 -24z m-953 5 c0 -8 -7 -15 -15 -15 -8 0 -15 7 -15
15 0 8 7 15 15 15 8 0 15 -7 15 -15z m60 -1 c0 -9 -5 -14 -12 -12 -18 6 -21
28 -4 28 9 0 16 -7 16 -16z m60 7 c0 -12 -20 -25 -27 -18 -7 7 6 27 18 27 5 0
9 -4 9 -9z m118 -3 c-6 -18 -28 -21 -28 -4 0 9 7 16 16 16 9 0 14 -5 12 -12z
m62 -4 c0 -9 -5 -14 -12 -12 -18 6 -21 28 -4 28 9 0 16 -7 16 -16z m60 1 c0
-8 -7 -15 -15 -15 -8 0 -15 7 -15 15 0 8 7 15 15 15 8 0 15 -7 15 -15z m60 0
c0 -8 -7 -15 -15 -15 -8 0 -15 7 -15 15 0 8 7 15 15 15 8 0 15 -7 15 -15z m60
11 c0 -2 -7 -9 -15 -16 -12 -10 -15 -10 -15 4 0 9 7 16 15 16 8 0 15 -2 15 -4z
m55 -6 c3 -5 -1 -10 -9 -10 -9 0 -16 5 -16 10 0 6 4 10 9 10 6 0 13 -4 16 -10z
m185 1 c0 -12 -20 -25 -27 -18 -7 7 6 27 18 27 5 0 9 -4 9 -9z m60 -13 c0 -13
-23 -5 -28 10 -2 7 2 10 12 6 9 -3 16 -11 16 -16z m130 -2 c0 -11 -19 -15 -25
-6 -3 5 1 10 9 10 9 0 16 -2 16 -4z m-137 -56 c-24 -23 -39 -14 -17 11 9 10
21 16 26 13 5 -3 1 -14 -9 -24z m47 20 c0 -5 -5 -10 -11 -10 -5 0 -7 5 -4 10
3 6 8 10 11 10 2 0 4 -4 4 -10z m73 -20 c-9 -10 -21 -17 -25 -13 -5 3 -2 13 8
24 22 24 38 14 17 -11z m47 20 c0 -5 -5 -10 -11 -10 -5 0 -7 5 -4 10 3 6 8 10
11 10 2 0 4 -4 4 -10z m-1002 -19 c3 -8 -1 -12 -9 -9 -7 2 -15 10 -17 17 -3 8
1 12 9 9 7 -2 15 -10 17 -17z m62 3 c0 -9 -5 -14 -12 -12 -18 6 -21 28 -4 28
9 0 16 -7 16 -16z m60 7 c0 -12 -20 -25 -27 -18 -7 7 6 27 18 27 5 0 9 -4 9
-9z m61 -7 c12 -14 11 -16 -5 -13 -11 2 -21 10 -24 17 -5 17 13 15 29 -4z m59
9 c0 -5 -5 -15 -10 -23 -7 -12 -12 -12 -22 -2 -10 10 -10 15 2 22 18 12 30 13
30 3z m63 0 c9 -9 -13 -34 -24 -27 -14 8 -11 34 4 34 8 0 17 -3 20 -7z m57 -8
c0 -8 -7 -15 -15 -15 -8 0 -15 7 -15 15 0 8 7 15 15 15 8 0 15 -7 15 -15z m60
0 c0 -8 -7 -15 -15 -15 -8 0 -15 7 -15 15 0 8 7 15 15 15 8 0 15 -7 15 -15z
m58 3 c-6 -18 -28 -21 -28 -4 0 9 7 16 16 16 9 0 14 -5 12 -12z m60 -7 c3 -8
-1 -12 -9 -9 -7 2 -15 10 -17 17 -3 8 1 12 9 9 7 -2 15 -10 17 -17z m117 8
c11 -16 1 -19 -13 -3 -7 8 -8 14 -3 14 5 0 13 -5 16 -11z m124 -15 c3 -16 1
-17 -13 -5 -19 16 -21 34 -3 29 6 -3 14 -13 16 -24z m125 -5 c-3 -5 -10 -7
-15 -3 -5 3 -7 10 -3 15 3 5 10 7 15 3 5 -3 7 -10 3 -15z m126 7 c0 -3 -4 -8
-10 -11 -5 -3 -10 -1 -10 4 0 6 5 11 10 11 6 0 10 -2 10 -4z m-859 -59 c-16
-16 -26 0 -10 19 9 11 15 12 17 4 2 -6 -1 -17 -7 -23z m69 7 c0 -18 -26 -18
-33 0 -3 8 -3 16 0 19 9 10 33 -5 33 -19z m533 -4 c-9 -10 -21 -17 -25 -13 -5
3 -2 13 8 24 22 24 38 14 17 -11z m52 20 c3 -5 -1 -10 -10 -10 -9 0 -13 5 -10
10 3 6 8 10 10 10 2 0 7 -4 10 -10z m80 0 c3 -5 1 -10 -4 -10 -6 0 -11 5 -11
10 0 6 2 10 4 10 3 0 8 -4 11 -10z m59 -31 c-6 -10 -42 23 -36 34 2 5 12 1 23
-9 10 -9 16 -20 13 -25z m49 11 c-10 -9 -22 -15 -26 -13 -5 3 0 13 10 23 10 9
22 15 26 13 5 -3 0 -13 -10 -23z m47 20 c0 -5 -5 -10 -11 -10 -5 0 -7 5 -4 10
3 6 8 10 11 10 2 0 4 -4 4 -10z m-1005 -10 c-3 -5 -11 -10 -16 -10 -6 0 -7 5
-4 10 3 6 11 10 16 10 6 0 7 -4 4 -10z m63 -8 c2 -7 -2 -10 -12 -6 -9 3 -16
11 -16 16 0 13 23 5 28 -10z m182 9 c0 -12 -20 -25 -27 -18 -7 7 6 27 18 27 5
0 9 -4 9 -9z m58 -10 c3 -8 -1 -12 -9 -9 -7 2 -15 10 -17 17 -3 8 1 12 9 9 7
-2 15 -10 17 -17z m60 7 c-6 -18 -28 -21 -28 -4 0 9 7 16 16 16 9 0 14 -5 12
-12z m56 -4 c4 -10 1 -14 -6 -12 -15 5 -23 28 -10 28 5 0 13 -7 16 -16z m186
12 c0 -2 -8 -10 -17 -17 -16 -13 -17 -12 -4 4 13 16 21 21 21 13z m-123 -12
c-3 -3 -12 -4 -19 -1 -8 3 -5 6 6 6 11 1 17 -2 13 -5z m188 -4 c3 -5 -1 -10
-10 -10 -9 0 -13 5 -10 10 3 6 8 10 10 10 2 0 7 -4 10 -10z m118 -20 c-4 -14
0 -20 12 -20 12 0 16 6 12 20 -3 11 -1 20 4 20 5 0 9 -11 9 -25 0 -20 -5 -25
-24 -25 -17 0 -25 7 -28 25 -4 16 -1 25 7 25 8 0 11 -8 8 -20z m-180 -53 c-3
-6 -12 -2 -20 8 -19 27 -16 37 6 18 11 -9 17 -21 14 -26z m49 14 c-9 -10 -20
-16 -24 -14 -4 2 0 12 10 22 9 10 20 16 24 14 4 -2 0 -12 -10 -22z m48 19 c0
-5 -5 -10 -11 -10 -5 0 -7 5 -4 10 3 6 8 10 11 10 2 0 4 -4 4 -10z m205 0 c3
-5 1 -10 -4 -10 -6 0 -11 5 -11 10 0 6 2 10 4 10 3 0 8 -4 11 -10z m35 0 c0
-5 -5 -10 -11 -10 -5 0 -7 5 -4 10 3 6 8 10 11 10 2 0 4 -4 4 -10z m-880 -9
c0 -5 -7 -12 -16 -15 -14 -5 -15 -4 -4 9 14 17 20 19 20 6z m58 -10 c3 -8 -1
-12 -9 -9 -7 2 -15 10 -17 17 -3 8 1 12 9 9 7 -2 15 -10 17 -17z m62 10 c0
-12 -20 -25 -27 -18 -7 7 6 27 18 27 5 0 9 -4 9 -9z m55 -20 c-6 -5 -25 10
-25 20 0 5 6 4 14 -3 8 -7 12 -15 11 -17z m65 25 c0 -2 -8 -10 -17 -17 -16
-13 -17 -12 -4 4 13 16 21 21 21 13z m55 -7 c11 -16 1 -19 -13 -3 -7 8 -8 14
-3 14 5 0 13 -5 16 -11z m185 2 c0 -5 -7 -11 -14 -14 -10 -4 -13 -1 -9 9 6 15
23 19 23 5z m190 -15 c0 -3 -4 -8 -10 -11 -5 -3 -10 -1 -10 4 0 6 5 11 10 11
6 0 10 -2 10 -4z m30 -21 c0 -20 -5 -25 -25 -25 -14 0 -25 4 -25 9 0 5 10 7
22 3 18 -4 20 -2 16 16 -4 12 -2 22 3 22 5 0 9 -11 9 -25z m120 16 c0 -5 -10
-7 -22 -3 -18 4 -20 2 -16 -16 4 -12 2 -22 -3 -22 -5 0 -9 11 -9 25 0 20 5 25
25 25 14 0 25 -4 25 -9z m-287 -51 c-21 -24 -28 -19 -13 9 6 12 15 19 20 16 5
-3 2 -14 -7 -25z m47 20 c0 -5 -5 -10 -11 -10 -5 0 -7 5 -4 10 3 6 8 10 11 10
2 0 4 -4 4 -10z m240 0 c0 -5 -5 -10 -11 -10 -5 0 -7 5 -4 10 3 6 8 10 11 10
2 0 4 -4 4 -10z m-822 -18 c2 -7 -2 -10 -12 -6 -9 3 -16 11 -16 16 0 13 23 5
28 -10z m60 6 c-6 -18 -28 -21 -28 -4 0 9 7 16 16 16 9 0 14 -5 12 -12z m48 3
c-4 -5 -1 -12 4 -14 6 -3 5 -4 -2 -3 -15 3 -23 26 -8 26 6 0 9 -4 6 -9z m124
-6 c7 -9 8 -15 2 -15 -5 0 -12 7 -16 15 -3 8 -4 15 -2 15 2 0 9 -7 16 -15z
m64 0 c-4 -8 -11 -15 -16 -15 -6 0 -5 6 2 15 7 8 14 15 16 15 2 0 1 -7 -2 -15z
m186 -5 c0 -5 -5 -10 -11 -10 -5 0 -7 5 -4 10 3 6 8 10 11 10 2 0 4 -4 4 -10z
m130 -4 c0 -3 -4 -8 -10 -11 -5 -3 -10 -1 -10 4 0 6 5 11 10 11 6 0 10 -2 10
-4z m30 -6 c0 -5 -2 -10 -4 -10 -3 0 -8 5 -11 10 -3 6 -1 10 4 10 6 0 11 -4
11 -10z m90 6 c0 -3 -4 -8 -10 -11 -5 -3 -10 -1 -10 4 0 6 5 11 10 11 6 0 10
-2 10 -4z m30 -21 c0 -14 -3 -25 -7 -25 -5 0 -8 11 -8 25 0 14 3 25 8 25 4 0
7 -11 7 -25z m-275 -15 c3 -5 1 -10 -4 -10 -6 0 -11 5 -11 10 0 6 2 10 4 10 3
0 8 -4 11 -10z m35 0 c0 -5 -5 -10 -11 -10 -5 0 -7 5 -4 10 3 6 8 10 11 10 2
0 4 -4 4 -10z m85 0 c3 -5 1 -10 -4 -10 -6 0 -11 5 -11 10 0 6 2 10 4 10 3 0
8 -4 11 -10z m35 0 c0 -5 -5 -10 -11 -10 -5 0 -7 5 -4 10 3 6 8 10 11 10 2 0
4 -4 4 -10z m85 0 c3 -5 1 -10 -4 -10 -6 0 -11 5 -11 10 0 6 2 10 4 10 3 0 8
-4 11 -10z m-735 -15 c-7 -9 -15 -13 -17 -11 -7 7 7 26 19 26 6 0 6 -6 -2 -15z
m68 -3 c2 -7 -2 -10 -12 -6 -9 3 -16 11 -16 16 0 13 23 5 28 -10z m52 3 c-7
-9 -15 -13 -17 -11 -7 7 7 26 19 26 6 0 6 -6 -2 -15z m124 0 c-4 -8 -11 -15
-16 -15 -6 0 -5 6 2 15 7 8 14 15 16 15 2 0 1 -7 -2 -15z m316 -9 c0 -3 -4 -8
-10 -11 -5 -3 -10 -1 -10 4 0 6 5 11 10 11 6 0 10 -2 10 -4z m30 -6 c0 -5 -2
-10 -4 -10 -3 0 -8 5 -11 10 -3 6 -1 10 4 10 6 0 11 -4 11 -10z m120 -15 c0
-20 -5 -25 -25 -25 -20 0 -25 5 -25 25 0 20 5 25 25 25 20 0 25 -5 25 -25z
m-400 -19 c0 -2 -8 -10 -17 -17 -16 -13 -17 -12 -4 4 13 16 21 21 21 13z m220
-26 c0 -5 -2 -10 -4 -10 -3 0 -8 5 -11 10 -3 6 -1 10 4 10 6 0 11 -4 11 -10z
m120 -15 c0 -20 -5 -25 -25 -25 -14 0 -25 4 -25 9 0 5 10 7 21 4 16 -4 20 -2
17 8 -3 8 -13 13 -22 13 -9 -1 -16 2 -16 7 0 5 11 9 25 9 20 0 25 -5 25 -25z
m-120 -15 c0 -5 -5 -10 -11 -10 -5 0 -7 5 -4 10 3 6 8 10 11 10 2 0 4 -4 4
-10z m58 -43 c4 -20 -25 -34 -40 -19 -8 8 -5 9 11 5 26 -7 30 23 4 31 -14 4
-14 4 2 3 11 -1 21 -10 23 -20z m117 -2 c0 -30 -39 -27 -43 3 -3 20 0 23 20
20 15 -2 23 -10 23 -23z m-61 -51 c5 -14 4 -15 -9 -4 -17 14 -19 20 -6 20 5 0
12 -7 15 -16z m-74 -168 c0 -2 -7 -7 -16 -10 -8 -3 -12 -2 -9 4 6 10 25 14 25
6z m17 -31 c-4 -8 -12 -15 -19 -14 -10 0 -10 2 0 6 6 2 12 12 12 21 0 8 3 13
6 9 4 -3 4 -13 1 -22z"/>
<path d="M66 3191 c-4 -5 -2 -12 3 -15 5 -4 12 -2 15 3 4 5 2 12 -3 15 -5 4
-12 2 -15 -3z"/>
<path d="M126 3131 c-4 -5 -2 -12 3 -15 5 -4 12 -2 15 3 4 5 2 12 -3 15 -5 4
-12 2 -15 -3z"/>
<path d="M66 3072 c-3 -6 -1 -14 5 -17 15 -10 25 3 12 16 -7 7 -13 7 -17 1z"/>
<path d="M190 3059 c0 -5 5 -7 10 -4 6 3 10 8 10 11 0 2 -4 4 -10 4 -5 0 -10
-5 -10 -11z"/>
<path d="M125 3000 c4 -6 11 -8 16 -5 14 9 11 15 -7 15 -8 0 -12 -5 -9 -10z"/>
<path d="M245 3000 c4 -6 11 -8 16 -5 14 9 11 15 -7 15 -8 0 -12 -5 -9 -10z"/>
<path d="M66 2951 c-4 -5 -2 -12 3 -15 5 -4 12 -2 15 3 4 5 2 12 -3 15 -5 4
-12 2 -15 -3z"/>
<path d="M186 2951 c-4 -5 -2 -12 3 -15 5 -4 12 -2 15 3 4 5 2 12 -3 15 -5 4
-12 2 -15 -3z"/>
<path d="M126 2891 c-4 -5 -2 -12 3 -15 5 -4 12 -2 15 3 4 5 2 12 -3 15 -5 4
-12 2 -15 -3z"/>
<path d="M246 2891 c-4 -5 -2 -12 3 -15 5 -4 12 -2 15 3 4 5 2 12 -3 15 -5 4
-12 2 -15 -3z"/>
<path d="M66 2833 c-11 -11 -6 -23 9 -23 8 0 15 4 15 9 0 13 -16 22 -24 14z"/>
<path d="M185 2820 c3 -5 8 -10 11 -10 2 0 4 5 4 10 0 6 -5 10 -11 10 -5 0 -7
-4 -4 -10z"/>
<path d="M125 2771 c-6 -11 9 -23 19 -14 9 9 7 23 -3 23 -6 0 -12 -4 -16 -9z"/>
<path d="M245 2760 c4 -6 11 -8 16 -5 14 9 11 15 -7 15 -8 0 -12 -5 -9 -10z"/>
<path d="M66 2711 c-4 -5 -2 -12 3 -15 5 -4 12 -2 15 3 4 5 2 12 -3 15 -5 4
-12 2 -15 -3z"/>
<path d="M186 2711 c-4 -5 -2 -12 3 -15 5 -4 12 -2 15 3 4 5 2 12 -3 15 -5 4
-12 2 -15 -3z"/>
<path d="M310 2710 c0 -5 5 -10 11 -10 5 0 7 5 4 10 -3 6 -8 10 -11 10 -2 0
-4 -4 -4 -10z"/>
<path d="M126 2651 c-4 -5 -2 -12 3 -15 5 -4 12 -2 15 3 4 5 2 12 -3 15 -5 4
-12 2 -15 -3z"/>
<path d="M246 2651 c-4 -5 -2 -12 3 -15 5 -4 12 -2 15 3 4 5 2 12 -3 15 -5 4
-12 2 -15 -3z"/>
<path d="M365 2650 c-3 -5 1 -10 10 -10 9 0 13 5 10 10 -3 6 -8 10 -10 10 -2
0 -7 -4 -10 -10z"/>
<path d="M66 2591 c-4 -5 -2 -12 3 -15 5 -4 12 -2 15 3 4 5 2 12 -3 15 -5 4
-12 2 -15 -3z"/>
<path d="M186 2591 c-4 -5 -2 -12 3 -15 5 -4 12 -2 15 3 4 5 2 12 -3 15 -5 4
-12 2 -15 -3z"/>
<path d="M305 2591 c-3 -5 -1 -12 5 -16 5 -3 10 1 10 9 0 18 -6 21 -15 7z"/>
<path d="M431 2584 c0 -11 3 -14 6 -6 3 7 2 16 -1 19 -3 4 -6 -2 -5 -13z"/>
<path d="M545 2591 c-3 -5 -1 -12 5 -16 5 -3 10 1 10 9 0 18 -6 21 -15 7z"/>
<path d="M667 2594 c-8 -8 1 -24 14 -24 5 0 9 7 9 15 0 15 -12 20 -23 9z"/>
<path d="M120 2525 c0 -8 7 -15 15 -15 8 0 15 7 15 15 0 8 -7 15 -15 15 -8 0
-15 -7 -15 -15z"/>
<path d="M247 2533 c-12 -11 -8 -23 8 -23 8 0 15 7 15 15 0 16 -12 20 -23 8z"/>
<path d="M365 2520 c4 -6 11 -8 16 -5 14 9 11 15 -7 15 -8 0 -12 -5 -9 -10z"/>
<path d="M485 2520 c4 -6 11 -8 16 -5 14 9 11 15 -7 15 -8 0 -12 -5 -9 -10z"/>
<path d="M606 2531 c-4 -5 -2 -12 3 -15 5 -4 12 -2 15 3 4 5 2 12 -3 15 -5 4
-12 2 -15 -3z"/>
<path d="M720 2525 c0 -8 7 -15 15 -15 8 0 15 7 15 15 0 8 -7 15 -15 15 -8 0
-15 -7 -15 -15z"/>
<path d="M305 2471 c-6 -11 9 -23 19 -14 9 9 7 23 -3 23 -6 0 -12 -4 -16 -9z"/>
<path d="M426 2471 c-4 -5 -2 -12 3 -15 5 -4 12 -2 15 3 4 5 2 12 -3 15 -5 4
-12 2 -15 -3z"/>
<path d="M667 2474 c-8 -8 1 -24 14 -24 5 0 9 7 9 15 0 15 -12 20 -23 9z"/>
<path d="M840 1385 c0 -8 7 -15 15 -15 8 0 15 7 15 15 0 8 -7 15 -15 15 -8 0
-15 -7 -15 -15z"/>
<path d="M840 1265 c0 -8 7 -15 15 -15 8 0 15 7 15 15 0 8 -7 15 -15 15 -8 0
-15 -7 -15 -15z"/>
<path d="M1837 3350 c-9 -11 -25 -20 -36 -20 -10 0 -30 -12 -44 -26 -25 -25
-28 -25 -56 -11 -25 12 -31 13 -35 1 -3 -7 2 -17 10 -22 9 -5 12 -15 8 -27 -7
-17 -8 -16 -16 4 -10 27 -41 21 -75 -15 -12 -13 -29 -24 -37 -24 -8 0 -18 -9
-21 -21 -4 -11 -18 -25 -31 -31 -13 -6 -26 -20 -30 -30 -3 -11 -16 -24 -29
-30 -13 -6 -26 -20 -29 -32 -3 -12 -17 -28 -31 -36 -18 -9 -25 -22 -25 -42 0
-20 -5 -28 -18 -28 -27 0 -33 -10 -20 -34 15 -26 11 -58 -8 -69 -8 -4 -14 -14
-14 -22 0 -7 -12 -27 -26 -45 -24 -28 -25 -32 -11 -48 17 -19 16 -64 -1 -70
-16 -5 -15 -49 1 -55 16 -6 15 -53 -1 -69 -17 -17 -15 -27 11 -49 19 -16 20
-20 7 -29 -13 -8 -13 -10 1 -10 25 0 42 -43 35 -87 -6 -35 -5 -40 18 -51 26
-12 35 -32 15 -32 -7 0 0 -9 14 -20 15 -12 24 -27 21 -35 -4 -9 5 -21 24 -32
19 -11 33 -28 36 -45 4 -18 12 -28 23 -28 10 0 23 -10 28 -22 6 -13 21 -28 35
-35 13 -6 28 -21 32 -32 4 -12 16 -21 28 -21 13 0 24 -10 30 -25 7 -19 17 -25
40 -25 25 0 30 -4 30 -25 0 -18 5 -25 20 -25 11 0 20 7 20 15 0 8 5 15 11 15
6 0 9 -7 5 -15 -3 -8 -1 -15 4 -15 6 0 10 7 10 15 0 24 20 17 30 -11 9 -23 14
-25 45 -20 33 6 35 5 35 -19 0 -28 26 -35 32 -9 5 25 66 27 79 3 12 -23 37
-24 63 -4 26 20 66 19 66 0 0 -23 17 -18 23 8 5 19 13 22 54 24 35 1 52 7 64
22 20 25 29 27 29 6 0 -23 24 -18 35 7 6 13 22 25 40 29 17 3 43 18 57 32 15
15 34 27 43 27 8 0 20 11 26 24 6 13 20 27 31 29 11 3 22 15 25 27 3 11 18 27
34 36 18 9 29 23 29 35 0 12 8 23 19 26 24 6 36 32 21 47 -16 16 -12 25 9 19
16 -4 20 3 26 44 4 27 15 56 26 66 23 21 25 45 4 53 -23 9 -19 51 5 57 15 4
20 14 20 36 0 18 -5 31 -12 31 -9 0 -10 3 -2 8 14 9 26 83 16 98 -4 6 -15 13
-24 17 -24 9 -23 39 2 55 27 17 25 38 -5 58 -14 9 -25 25 -25 35 0 10 -4 20
-9 23 -5 3 -7 16 -4 27 4 16 2 20 -8 17 -8 -3 -13 -13 -13 -22 1 -9 -4 -16
-12 -16 -22 0 -16 28 11 52 19 16 22 25 14 39 -5 11 -19 19 -30 19 -15 0 -19
5 -14 19 6 21 -18 51 -41 51 -8 0 -14 8 -14 18 0 23 -19 42 -42 42 -13 0 -18
8 -18 25 0 20 -6 27 -29 31 -20 4 -31 14 -36 31 -5 21 -11 25 -38 21 -29 -3
-32 -1 -32 22 0 22 -4 25 -39 25 -25 0 -41 -5 -44 -14 -3 -10 1 -12 17 -8 11
3 19 1 15 -4 -3 -5 -16 -9 -30 -9 -30 0 -33 32 -5 52 14 10 17 18 10 28 -8 13
-11 12 -23 -2 -20 -27 -55 -23 -66 7 -12 32 -61 34 -90 5 -19 -19 -20 -19 -20
-1 0 10 7 22 16 25 14 5 14 9 3 22 -12 14 -14 14 -25 0 -6 -9 -22 -16 -35 -16
-13 0 -35 -9 -49 -20 -21 -17 -23 -21 -10 -31 13 -9 13 -10 0 -6 -25 6 -24 44
1 52 20 7 20 8 5 24 -16 15 -18 15 -30 -1 -16 -22 -73 -24 -96 -3 -14 13 -18
12 -33 -5z m31 -34 c-7 -8 -15 -12 -17 -11 -5 6 10 25 20 25 5 0 4 -6 -3 -14z
m183 -55 c-12 -8 -12 -12 -2 -25 8 -9 9 -16 3 -16 -5 0 -14 6 -21 13 -11 14 3
37 24 37 5 0 4 -4 -4 -9z m-134 -23 c-3 -8 -6 -5 -6 6 -1 11 2 17 5 13 3 -3 4
-12 1 -19z m252 0 c12 -15 11 -18 -3 -18 -10 0 -16 8 -16 22 0 12 1 19 3 17 1
-2 9 -12 16 -21z m-177 -40 c-8 -8 -9 -15 -1 -25 8 -9 8 -13 0 -13 -18 0 -26
31 -10 41 20 12 25 11 11 -3z m237 -4 c-10 -13 -10 -17 2 -25 12 -7 12 -9 -2
-9 -22 0 -28 8 -22 31 3 10 12 19 20 19 13 0 13 -3 2 -16z m115 1 c-4 -9 5
-19 27 -27 25 -11 33 -20 33 -41 2 -35 -22 -35 -26 0 -2 20 -10 29 -28 33 -28
7 -42 50 -16 50 9 0 13 -6 10 -15z m-229 -33 c-8 -8 -25 10 -25 26 0 13 2 13
14 -4 8 -10 13 -21 11 -22z m57 -24 c-17 -17 -15 -28 6 -29 11 0 12 -2 4 -6
-21 -8 -44 17 -31 33 6 8 16 14 22 14 7 0 7 -4 -1 -12z m123 -1 c-10 -8 -15
-19 -11 -25 4 -7 3 -12 -3 -12 -14 0 -24 19 -17 35 3 8 15 15 28 15 21 0 21
-1 3 -13z m-182 -54 c-7 -2 -13 -12 -13 -20 0 -9 -3 -14 -6 -10 -10 10 4 37
18 36 10 0 10 -2 1 -6z m120 0 c-7 -2 -13 -11 -13 -18 0 -7 6 -16 13 -18 7 -3
5 -6 -5 -6 -13 -1 -18 7 -18 24 0 17 5 25 18 24 10 0 12 -3 5 -6z m118 -2 c-8
-5 -11 -16 -7 -26 4 -11 2 -15 -6 -13 -7 3 -14 14 -16 26 -3 17 2 22 20 22 17
0 19 -3 9 -9z m112 -7 c-3 -9 0 -20 8 -25 11 -6 8 -9 -8 -9 -18 0 -23 6 -23
25 0 15 6 25 15 25 9 0 12 -6 8 -16z m-486 -16 c-3 -8 -6 -5 -6 6 -1 11 2 17
5 13 3 -3 4 -12 1 -19z m563 -40 c-25 -9 -26 -28 -2 -29 14 0 14 -2 -3 -9 -24
-10 -31 -4 -38 36 l-6 31 34 -11 c30 -9 32 -12 15 -18z m-368 0 c-8 -8 -9 -15
-1 -25 9 -10 8 -13 -5 -13 -10 0 -16 9 -16 25 0 17 6 25 17 25 13 0 14 -3 5
-12z m105 -20 c-3 -7 -5 -2 -5 12 0 14 2 19 5 13 2 -7 2 -19 0 -25z m128 7 c0
-14 -3 -25 -7 -25 -5 0 -8 11 -8 25 0 14 3 25 8 25 4 0 7 -11 7 -25z m-488 -7
c-3 -8 -6 -5 -6 6 -1 11 2 17 5 13 3 -3 4 -12 1 -19z m138 -17 c-6 -5 -25 10
-25 20 0 5 6 4 14 -3 8 -7 12 -15 11 -17z m56 -20 c-8 -5 -11 -16 -7 -26 5
-15 4 -16 -9 -5 -12 10 -13 16 -4 26 6 8 17 14 23 14 6 0 5 -4 -3 -9z m226
-23 c-3 -7 -5 -2 -5 12 0 14 2 19 5 13 2 -7 2 -19 0 -25z m128 7 c0 -30 -17
-28 -22 3 -1 13 2 22 10 22 6 0 12 -11 12 -25z m120 0 c0 -14 -6 -25 -12 -25
-7 0 -13 11 -13 25 0 14 6 25 13 25 6 0 12 -11 12 -25z m-608 -7 c-3 -8 -6 -5
-6 6 -1 11 2 17 5 13 3 -3 4 -12 1 -19z m240 0 c-3 -8 -6 -5 -6 6 -1 11 2 17
5 13 3 -3 4 -12 1 -19z m185 -53 c3 -13 1 -22 -3 -19 -9 5 -13 44 -5 44 2 0 6
-11 8 -25z m124 0 c-1 -30 -20 -27 -24 3 -2 14 2 22 11 22 10 0 14 -9 13 -25z
m-489 -7 c-3 -8 -6 -5 -6 6 -1 11 2 17 5 13 3 -3 4 -12 1 -19z m120 0 c-3 -8
-6 -5 -6 6 -1 11 2 17 5 13 3 -3 4 -12 1 -19z m306 -44 c-3 -9 0 -20 8 -26 12
-8 11 -9 -1 -5 -17 4 -27 47 -11 47 6 0 8 -7 4 -16z m123 -9 c0 -14 -4 -25 -8
-25 -12 0 -20 20 -14 35 9 24 24 17 22 -10z m-61 -59 c0 -13 -3 -22 -7 -19 -5
2 -8 13 -8 24 0 10 3 19 8 19 4 0 7 -11 7 -24z m117 -1 c3 -14 1 -25 -3 -25
-5 0 -9 11 -9 25 0 14 2 25 4 25 2 0 6 -11 8 -25z m-245 -7 c-3 -8 -6 -5 -6 6
-1 11 2 17 5 13 3 -3 4 -12 1 -19z m180 -60 c-3 -8 -6 -5 -6 6 -1 11 2 17 5
13 3 -3 4 -12 1 -19z m60 -60 c-3 -7 -5 -2 -5 12 0 14 2 19 5 13 2 -7 2 -19 0
-25z m60 -60 c-3 -8 -6 -5 -6 6 -1 11 2 17 5 13 3 -3 4 -12 1 -19z"/>
<path d="M2230 3300 c0 -5 5 -10 10 -10 6 0 10 5 10 10 0 6 -4 10 -10 10 -5 0
-10 -4 -10 -10z"/>
<path d="M0 3245 c0 -9 5 -15 11 -13 14 5 14 21 0 26 -6 2 -11 -4 -11 -13z"/>
<path d="M0 3125 c0 -9 5 -15 11 -13 14 5 14 21 0 26 -6 2 -11 -4 -11 -13z"/>
<path d="M2525 3120 c3 -5 8 -10 11 -10 2 0 4 5 4 10 0 6 -5 10 -11 10 -5 0
-7 -4 -4 -10z"/>
<path d="M0 3005 c0 -9 5 -15 11 -13 14 5 14 21 0 26 -6 2 -11 -4 -11 -13z"/>
<path d="M0 2885 c0 -9 5 -15 11 -13 14 5 14 21 0 26 -6 2 -11 -4 -11 -13z"/>
<path d="M0 2765 c0 -9 5 -15 11 -13 14 5 14 21 0 26 -6 2 -11 -4 -11 -13z"/>
<path d="M2707 2713 c-12 -11 -8 -23 8 -23 8 0 15 7 15 15 0 16 -12 20 -23 8z"/>
<path d="M0 2645 c0 -9 5 -15 11 -13 14 5 14 21 0 26 -6 2 -11 -4 -11 -13z"/>
<path d="M0 2525 c0 -9 5 -15 11 -13 14 5 14 21 0 26 -6 2 -11 -4 -11 -13z"/>
<path d="M546 2471 c-4 -5 -2 -12 3 -15 5 -4 12 -2 15 3 4 5 2 12 -3 15 -5 4
-12 2 -15 -3z"/>
<path d="M2705 2469 c-4 -6 -5 -13 -2 -16 7 -7 27 6 27 18 0 12 -17 12 -25 -2z"/>
<path d="M50 2426 c-27 -33 18 -72 48 -42 13 13 14 20 6 34 -15 23 -38 26 -54
8z"/>
<path d="M530 2425 c-25 -30 15 -69 45 -45 8 7 15 22 15 34 0 26 -41 34 -60
11z"/>
<path d="M0 2405 c0 -9 5 -15 11 -13 14 5 14 21 0 26 -6 2 -11 -4 -11 -13z"/>
<path d="M366 2411 c-4 -5 -2 -12 3 -15 5 -4 12 -2 15 3 4 5 2 12 -3 15 -5 4
-12 2 -15 -3z"/>
<path d="M486 2411 c-4 -5 -2 -12 3 -15 5 -4 12 -2 15 3 4 5 2 12 -3 15 -5 4
-12 2 -15 -3z"/>
<path d="M605 2409 c-10 -15 3 -25 16 -12 7 7 7 13 1 17 -6 3 -14 1 -17 -5z"/>
<path d="M0 2345 c0 -41 22 -48 41 -13 10 18 8 24 -7 35 -28 20 -34 16 -34
-22z"/>
<path d="M117 2365 c-30 -30 5 -65 40 -40 14 11 16 18 7 31 -15 25 -29 27 -47
9z"/>
<path d="M352 2368 c-16 -16 -15 -23 3 -42 28 -27 69 10 44 40 -14 17 -31 18
-47 2z"/>
<path d="M470 2361 c-14 -28 13 -55 41 -41 22 12 25 30 7 48 -18 18 -36 15
-48 -7z"/>
<path d="M67 2354 c-8 -8 1 -24 14 -24 5 0 9 7 9 15 0 15 -12 20 -23 9z"/>
<path d="M300 2346 c0 -9 7 -16 16 -16 17 0 14 22 -4 28 -7 2 -12 -3 -12 -12z"/>
<path d="M426 2351 c-4 -5 -2 -12 3 -15 5 -4 12 -2 15 3 4 5 2 12 -3 15 -5 4
-12 2 -15 -3z"/>
<path d="M546 2352 c-3 -6 -1 -14 5 -17 15 -10 25 3 12 16 -7 7 -13 7 -17 1z"/>
<path d="M56 2304 c-17 -16 -12 -40 9 -48 19 -7 46 20 39 39 -8 21 -32 26 -48
9z"/>
<path d="M290 2301 c-7 -15 -6 -23 6 -35 8 -9 17 -16 19 -16 2 0 11 7 19 16
18 18 6 54 -19 54 -8 0 -19 -9 -25 -19z"/>
<path d="M412 2308 c-7 -7 -12 -15 -12 -19 0 -15 31 -38 45 -33 21 9 26 32 9
49 -19 18 -26 19 -42 3z"/>
<path d="M127 2293 c-12 -11 -8 -23 8 -23 8 0 15 7 15 15 0 16 -12 20 -23 8z"/>
<path d="M242 2289 c2 -7 10 -15 17 -17 8 -3 12 1 9 9 -2 7 -10 15 -17 17 -8
3 -12 -1 -9 -9z"/>
<path d="M367 2293 c-12 -11 -8 -23 8 -23 8 0 15 7 15 15 0 16 -12 20 -23 8z"/>
<path d="M482 2289 c2 -7 10 -15 17 -17 8 -3 12 1 9 9 -2 7 -10 15 -17 17 -8
3 -12 -1 -9 -9z"/>
<path d="M231 2246 c-7 -8 -21 -12 -31 -9 -14 4 -20 0 -20 -12 0 -13 6 -16 25
-11 14 4 25 2 25 -4 0 -16 47 -12 54 5 5 14 -17 45 -33 45 -5 0 -14 -6 -20
-14z"/>
<path d="M356 2244 c-17 -16 -12 -40 9 -48 19 -7 46 20 39 39 -8 21 -32 26
-48 9z"/>
<path d="M60 2225 c0 -8 7 -15 15 -15 8 0 15 7 15 15 0 8 -7 15 -15 15 -8 0
-15 -7 -15 -15z"/>
<path d="M306 2231 c-4 -5 -2 -12 3 -15 5 -4 12 -2 15 3 4 5 2 12 -3 15 -5 4
-12 2 -15 -3z"/>
<path d="M422 2229 c2 -7 10 -15 17 -17 8 -3 12 1 9 9 -2 7 -10 15 -17 17 -8
3 -12 -1 -9 -9z"/>
<path d="M302 2188 c-16 -16 -15 -33 1 -47 11 -8 18 -7 31 7 15 18 15 20 -2
35 -14 13 -21 14 -30 5z"/>
<path d="M416 2184 c-17 -16 -12 -40 9 -48 19 -7 46 20 39 39 -8 21 -32 26
-48 9z"/>
<path d="M247 2173 c-12 -11 -8 -23 8 -23 8 0 15 7 15 15 0 16 -12 20 -23 8z"/>
<path d="M360 2165 c0 -8 7 -15 15 -15 8 0 15 7 15 15 0 8 -7 15 -15 15 -8 0
-15 -7 -15 -15z"/>
<path d="M355 2121 c-15 -17 -15 -20 1 -35 15 -16 18 -16 35 -1 19 18 16 40
-6 49 -7 2 -21 -4 -30 -13z"/>
<path d="M300 2105 c0 -8 7 -15 15 -15 8 0 15 7 15 15 0 8 -7 15 -15 15 -8 0
-15 -7 -15 -15z"/>
<path d="M1565 1860 c3 -5 8 -10 11 -10 2 0 4 5 4 10 0 6 -5 10 -11 10 -5 0
-7 -4 -4 -10z"/>
<path d="M1566 1833 c-12 -12 -6 -33 9 -33 8 0 15 6 15 14 0 17 -14 28 -24 19z"/>
<path d="M1983 1762 c-7 -4 -65 -7 -129 -6 -108 1 -117 0 -122 -18 -4 -15 -10
-18 -31 -13 -14 4 -27 11 -29 16 -2 5 -12 9 -23 9 -18 0 -23 -10 -20 -38 2
-10 -6 -12 -28 -7 -25 5 -32 2 -46 -19 -20 -30 -59 -35 -73 -10 -6 11 -14 14
-22 9 -10 -6 -9 -11 5 -21 25 -18 14 -26 -34 -26 -35 1 -42 -3 -47 -24 -4 -17
-13 -24 -30 -24 -16 0 -28 -9 -39 -30 -9 -18 -23 -30 -36 -30 -12 0 -23 -10
-29 -25 -5 -14 -17 -25 -25 -25 -9 0 -24 -13 -33 -29 -9 -17 -25 -32 -34 -35
-10 -2 -22 -14 -26 -26 -4 -11 -19 -27 -32 -33 -14 -7 -26 -22 -28 -33 -2 -12
-14 -26 -28 -32 -13 -7 -24 -18 -24 -26 0 -8 -14 -24 -30 -36 -23 -16 -30 -28
-28 -48 3 -23 0 -27 -20 -24 -29 4 -41 -24 -17 -42 20 -14 13 -56 -10 -56 -7
0 -16 -14 -20 -30 -4 -17 -15 -35 -26 -40 -23 -13 -24 -33 -3 -66 16 -23 15
-24 -1 -17 -13 4 -16 3 -11 -5 4 -7 0 -19 -8 -28 -9 -8 -16 -22 -16 -31 0 -8
-9 -26 -20 -40 -18 -23 -19 -28 -5 -43 19 -21 19 -54 0 -70 -19 -16 -19 -44 0
-60 19 -16 19 -46 0 -54 -19 -7 -19 -55 0 -62 19 -8 19 -50 0 -58 -20 -7 -19
-45 1 -67 17 -19 15 -29 -11 -65 -14 -19 -14 -23 6 -48 11 -14 18 -32 15 -39
-4 -7 -13 -23 -21 -37 -13 -22 -12 -27 5 -45 25 -26 25 -29 -1 -65 l-22 -29
24 -30 24 -30 1193 0 1192 -1 0 80 c0 57 -4 80 -12 80 -9 0 -10 3 -2 8 15 10
17 92 3 108 -9 10 -9 14 0 14 15 0 14 27 -1 33 -10 4 -10 6 0 6 15 1 16 53 0
69 -9 9 -9 12 0 12 7 0 12 7 12 15 0 8 -5 15 -12 15 -9 0 -9 3 0 12 15 15 16
55 2 63 -8 5 -7 12 1 22 10 11 10 16 0 23 -9 5 -10 10 -2 14 13 9 15 53 2 60
-5 3 -7 15 -4 26 3 13 0 20 -8 20 -10 0 -10 3 -1 12 17 17 15 48 -4 69 -14 16
-15 23 -4 49 10 25 10 34 -4 54 -8 14 -18 43 -22 66 -4 22 -11 43 -15 46 -5 3
-9 18 -9 34 0 16 -5 32 -11 36 -14 8 -43 75 -40 91 1 8 -4 10 -14 7 -14 -6
-15 -1 -10 28 6 30 3 36 -19 46 -15 7 -26 20 -26 32 0 11 -11 27 -25 36 -14 9
-25 22 -25 30 0 7 -11 21 -25 30 -13 9 -27 25 -30 36 -4 10 -18 24 -31 30 -13
6 -24 17 -24 24 0 8 -12 21 -27 31 -16 10 -36 28 -46 40 -10 13 -24 23 -32 23
-7 0 -20 11 -29 25 -11 17 -26 25 -46 25 -23 0 -30 4 -30 20 0 11 -7 20 -15
20 -8 0 -15 5 -15 11 0 6 -8 9 -18 7 -10 -3 -27 1 -37 8 -10 8 -28 14 -40 14
-11 0 -26 9 -32 19 -7 11 -29 22 -52 26 -23 4 -41 11 -41 15 0 5 -8 16 -17 25
-16 16 -17 16 -30 -1 -13 -17 -15 -17 -42 -1 -28 16 -68 20 -156 16 -22 -1
-49 -2 -60 -2 -11 -1 -36 2 -55 6 -19 4 -40 3 -47 -1z m-189 -57 c-4 -22 -2
-41 6 -50 15 -19 3 -20 -15 -2 -19 20 -22 51 -6 70 20 25 23 21 15 -18z m115
-169 c10 -12 8 -13 -8 -9 -12 3 -21 9 -21 14 0 14 16 11 29 -5z m191 -56 c0
-5 -4 -10 -9 -10 -6 0 -13 5 -16 10 -3 6 1 10 9 10 9 0 16 -4 16 -10z m-180
-74 c0 -5 -7 -3 -15 4 -8 7 -12 17 -9 22 7 10 24 -9 24 -26z m180 9 c0 -8 -7
-15 -16 -15 -14 0 -14 3 -4 15 7 8 14 15 16 15 2 0 4 -7 4 -15z m-200 -71 c0
-8 -5 -12 -10 -9 -6 4 -8 11 -5 16 9 14 15 11 15 -7z"/>
<path d="M1190 1705 c-10 -12 -11 -21 -4 -33 15 -22 27 -24 49 -8 16 12 18 18
9 33 -15 24 -38 27 -54 8z"/>
<path d="M1140 1685 c0 -8 7 -15 15 -15 8 0 15 7 15 15 0 8 -7 15 -15 15 -8 0
-15 -7 -15 -15z"/>
<path d="M1265 1690 c-3 -5 1 -10 10 -10 9 0 13 5 10 10 -3 6 -8 10 -10 10 -2
0 -7 -4 -10 -10z"/>
<path d="M965 1390 c-3 -5 -1 -10 4 -10 6 0 11 5 11 10 0 6 -2 10 -4 10 -3 0
-8 -4 -11 -10z"/>
<path d="M905 1329 c-4 -6 -5 -13 -2 -16 7 -7 27 6 27 18 0 12 -17 12 -25 -2z"/>
<path d="M3351 184 c0 -11 3 -14 6 -6 3 7 2 16 -1 19 -3 4 -6 -2 -5 -13z"/>
<path d="M3465 191 c-3 -5 -1 -12 5 -16 5 -3 10 1 10 9 0 18 -6 21 -15 7z"/>
<path d="M3591 184 c0 -11 3 -14 6 -6 3 7 2 16 -1 19 -3 4 -6 -2 -5 -13z"/>
<path d="M3351 64 c0 -11 3 -14 6 -6 3 7 2 16 -1 19 -3 4 -6 -2 -5 -13z"/>
<path d="M3471 64 c0 -11 3 -14 6 -6 3 7 2 16 -1 19 -3 4 -6 -2 -5 -13z"/>
<path d="M735 10 c-3 -5 1 -10 10 -10 9 0 13 5 10 10 -3 6 -8 10 -10 10 -2 0
-7 -4 -10 -10z"/>
</g>
</svg>
